<svg id="visual" viewBox="0 0 900 600" width="900" height="600" xmlns="http://www.w3.org/2000/svg" xmlns:xlink="http://www.w3.org/1999/xlink" version="1.1"><path d="M0 330L10.7 328.2C21.3 326.3 42.7 322.7 64.2 310.8C85.7 299 107.3 279 128.8 281.8C150.3 284.7 171.7 310.3 193 322.7C214.3 335 235.7 334 257 331.3C278.3 328.7 299.7 324.3 321.2 311.7C342.7 299 364.3 278 385.8 281.3C407.3 284.7 428.7 312.3 450 322.2C471.3 332 492.7 324 514.2 310.5C535.7 297 557.3 278 578.8 284.5C600.3 291 621.7 323 643 329.8C664.3 336.7 685.7 318.3 707 299.2C728.3 280 749.7 260 771.2 257C792.7 254 814.3 268 835.8 271.8C857.3 275.7 878.7 269.3 889.3 266.2L900 263L900 601L889.3 601C878.7 601 857.3 601 835.8 601C814.3 601 792.7 601 771.2 601C749.7 601 728.3 601 707 601C685.7 601 664.3 601 643 601C621.7 601 600.3 601 578.8 601C557.3 601 535.7 601 514.2 601C492.7 601 471.3 601 450 601C428.7 601 407.3 601 385.8 601C364.3 601 342.7 601 321.2 601C299.7 601 278.3 601 257 601C235.7 601 214.3 601 193 601C171.7 601 150.3 601 128.8 601C107.3 601 85.7 601 64.2 601C42.7 601 21.3 601 10.7 601L0 601Z" fill="#ff00c1" stroke-linecap="round" stroke-linejoin="miter"></path></svg>