<svg id="visual" viewBox="0 0 900 600" width="900" height="600" xmlns="http://www.w3.org/2000/svg" xmlns:xlink="http://www.w3.org/1999/xlink" version="1.1"><path d="M0 419L16.7 426C33.3 433 66.7 447 100 451C133.3 455 166.7 449 200 449.7C233.3 450.3 266.7 457.7 300 458.3C333.3 459 366.7 453 400 444.3C433.3 435.7 466.7 424.3 500 419.8C533.3 415.3 566.7 417.7 600 426.2C633.3 434.7 666.7 449.3 700 455.8C733.3 462.3 766.7 460.7 800 452C833.3 443.3 866.7 427.7 883.3 419.8L900 412L900 601L883.3 601C866.7 601 833.3 601 800 601C766.7 601 733.3 601 700 601C666.7 601 633.3 601 600 601C566.7 601 533.3 601 500 601C466.7 601 433.3 601 400 601C366.7 601 333.3 601 300 601C266.7 601 233.3 601 200 601C166.7 601 133.3 601 100 601C66.7 601 33.3 601 16.7 601L0 601Z" fill="#ff8ff5" stroke-linecap="round" stroke-linejoin="miter"></path></svg>